<svg 
  version="1.1" 
  xmlns="http://www.w3.org/2000/svg" 
  width="20" 
  viewBox="0 0 32 32"
  aria-hidden="true"
  id="banner-search-icon"
  class="banner-icon"
>
<title>Search UConn</title>
<path d="M28.072 24.749l-6.046-6.046c0.912-1.499 1.437-3.256 1.437-5.139 0-5.466-4.738-10.203-10.205-10.203-5.466 0-9.898 4.432-9.898 9.898 0 5.467 4.736 10.205 10.203 10.205 1.818 0 3.52-0.493 4.984-1.349l6.078 6.080c0.597 0.595 1.56 0.595 2.154 0l1.509-1.507c0.594-0.595 0.378-1.344-0.216-1.938zM6.406 13.258c0-3.784 3.067-6.853 6.851-6.853 3.786 0 7.158 3.373 7.158 7.158s-3.067 6.853-6.853 6.853-7.157-3.373-7.157-7.158z"></path>
</svg>